<svg width="228.000000pt" height="225.000000pt" viewBox="0 0 228.000000 225.000000" xmlns="http://www.w3.org/2000/svg">
  <g transform="translate(0.000000,225.000000) scale(0.100000,-0.100000)" fill="#fefefe" stroke="none">
    <path d="M0 1125 l0 -1125 1140 0 1140 0 0 1125 0 1125 -1140 0 -1140 0 0
-1125z m915 890 c84 -22 164 -68 232 -133 l60 -57 31 -65 c17 -36 36 -95 41
-130 6 -36 11 -152 11 -257 l0 -193 -480 0 -480 0 0 203 0 202 14 67 c21 98
37 124 134 229 l53 57 62 33 c109 58 213 72 322 44z m647 -876 c29 -6 78 -23
108 -38 68 -33 169 -126 201 -186 13 -25 27 -45 31 -45 3 0 14 -24 24 -52 l18
-53 -1 -85 0 -85 -16 -42 c-9 -24 -21 -48 -27 -55 -6 -7 -24 -35 -41 -62 l-31
-49 -157 157 -158 158 -24 -4 -24 -3 -3 -29 -4 -29 154 -154 153 -154 -25 -19
c-46 -36 -130 -70 -201 -82 l-69 -12 -66 11 c-37 7 -95 26 -130 43 l-64 31 39
52 c44 59 73 113 92 172 l12 40 6 285 6 285 30 6 c49 11 110 10 167 -2z m-552
-126 c0 -54 4 -104 9 -111 l8 -14 29 4 29 3 3 108 3 107 100 0 101 0 -4 -252
-4 -253 -22 -58 c-32 -88 -77 -151 -147 -207 -78 -62 -156 -99 -241 -113 l-64
-11 -67 11 -67 12 -71 35 -71 35 -55 59 c-98 106 -114 132 -135 230 l-14 67 0
223 0 222 340 0 340 0 0 -97z" />
    <path d="M599 1846 c-43 -30 -84 -81 -110 -142 l-21 -46 -1 -61 -2 -62 29 -3
29 -4 8 14 c5 7 9 29 9 49 l0 35 26 52 26 53 49 41 c49 41 59 64 37 86 -18 18
-39 15 -79 -12z" />
    <path d="M1387 774 c-4 -4 -7 -20 -7 -35 l0 -28 19 -6 c10 -3 26 -3 35 1 l17
7 -3 31 -3 31 -25 3 c-14 2 -29 0 -33 -4z" />
    <path d="M1020 755 c-15 -18 -10 -45 13 -59 l17 -11 18 11 c9 6 18 19 20 28 5
22 -16 46 -38 46 -10 0 -23 -7 -30 -15z" />
  </g>
  <g transform="translate(0.000000,225.000000) scale(0.100000,-0.100000)" fill="#1a3853" stroke="none">
    <path d="M670 2021 c-93 -29 -219 -126 -262 -203 -12 -21 -25 -38 -29 -38 -4
0 -15 -21 -25 -47 l-18 -48 -4 -252 -4 -253 481 0 481 0 0 228 0 227 -14 52
c-8 28 -24 73 -37 100 l-24 48 -60 58 -60 58 -75 37 -75 37 -125 2 c-69 0
-136 -2 -150 -6z m1 -177 l13 -16 -52 -46 c-59 -54 -88 -108 -98 -180 -3 -29
-13 -57 -20 -63 l-14 -11 -16 13 -16 13 6 53 c9 85 67 183 135 229 20 13 39
24 42 24 4 0 12 -7 20 -16z" />
    <path d="M1367 1143 c-4 -3 -7 -93 -7 -200 l0 -193 13 0 c7 0 18 5 24 11 16
16 43 4 43 -20 0 -25 -26 -34 -44 -16 -8 8 -18 15 -23 15 -5 0 -14 -43 -20
-95 l-11 -95 -32 -68 c-17 -36 -49 -90 -71 -119 -21 -29 -39 -56 -39 -60 0
-13 71 -50 129 -67 l55 -16 93 0 94 0 60 20 c73 25 139 67 139 88 0 9 -70 87
-156 174 l-157 157 13 16 c7 8 17 15 24 15 6 0 82 -71 168 -157 l158 -158 17
11 c10 6 31 37 48 70 16 32 33 61 36 64 15 12 29 91 29 165 0 74 -14 153 -29
165 -3 3 -16 27 -29 53 -28 60 -101 140 -168 183 -28 18 -78 40 -111 48 l-61
16 -89 0 c-49 0 -93 -3 -96 -7z" />
  </g>
  <g transform="translate(0.000000,225.000000) scale(0.100000,-0.100000)" fill="#16ade1" stroke="none">
    <path d="M332 838 l4 -273 18 -47 c10 -27 21 -48 25 -48 4 0 17 -18 29 -39 32
-57 127 -140 202 -175 l65 -31 135 0 135 0 65 32 c36 18 93 55 127 83 l62 52
43 81 42 82 4 278 4 277 -106 0 -106 0 0 -98 0 -98 -12 -12 -11 -11 -19 10
-18 10 0 99 0 100 -346 0 -345 0 3 -272z m738 -94 l13 -15 -16 -17 -17 -16
-17 16 -16 17 13 15 c7 9 16 16 20 16 4 0 13 -7 20 -16z" />
  </g>
  <g transform="translate(0.000000,225.000000) scale(0.100000,-0.100000)" fill="#002948" stroke="none">
    <path d="M735 2030 l-6 -10 30 0 c17 0 31 5 31 10 0 6 -11 10 -24 10 -14 0
-28 -4 -31 -10z" />
    <path d="M830 2030 c0 -5 11 -10 25 -10 14 0 25 5 25 10 0 6 -11 10 -25 10
-14 0 -25 -4 -25 -10z" />
    <path d="M690 2020 c0 -5 7 -10 15 -10 8 0 15 5 15 10 0 6 -7 10 -15 10 -8 0
-15 -4 -15 -10z" />
    <path d="M900 2020 c0 -5 7 -10 15 -10 8 0 15 5 15 10 0 6 -7 10 -15 10 -8 0
-15 -4 -15 -10z" />
    <path d="M640 2010 l-14 -9 8 -8 9 -8 4 12 c2 7 11 9 19 6 8 -3 14 0 14 6 0
13 -20 14 -40 1z" />
    <path d="M940 2010 c0 -5 5 -10 10 -10 6 0 10 5 10 10 0 6 -4 10 -10 10 -5 0
-10 -4 -10 -10z" />
    <path d="M970 2001 c0 -5 9 -11 20 -14 24 -6 27 8 4 17 -21 8 -24 8 -24 -3z" />
    <path d="M554 1961 c-57 -37 -136 -111 -119 -111 4 0 32 22 61 50 29 27 68 57
88 67 20 9 36 20 36 25 0 4 -2 8 -3 8 -2 0 -30 -17 -63 -39z" />
    <path d="M1020 1983 c1 -4 17 -18 36 -31 20 -12 34 -17 32 -12 -4 14 -68 55
-68 43z" />
    <path d="M1100 1931 c0 -5 20 -26 43 -45 24 -20 52 -52 63 -71 10 -19 22 -35
26 -35 12 0 10 6 -21 52 -30 44 -111 117 -111 99z" />
    <path d="M592 1841 c-38 -28 -60 -51 -48 -51 3 0 26 16 52 35 25 19 49 35 54
35 4 0 13 -7 20 -15 l13 -16 -23 -24 c-13 -14 -19 -25 -14 -25 13 0 44 37 44
53 0 18 -21 37 -40 37 -10 0 -35 -13 -58 -29z" />
    <path d="M397 1805 c-31 -39 -51 -82 -62 -132 l-7 -33 11 0 c6 0 11 8 11 19 0
23 28 103 38 111 15 10 53 70 45 70 -4 0 -21 -16 -36 -35z" />
    <path d="M500 1730 c-27 -52 -12 -52 17 0 12 22 17 40 12 40 -5 0 -18 -18 -29
-40z" />
    <path d="M585 1734 c-15 -19 -24 -38 -20 -42 4 -4 10 -1 12 6 3 7 16 26 30 42
14 17 20 30 15 30 -5 0 -22 -16 -37 -36z" />
    <path d="M1254 1727 c3 -10 6 -25 6 -33 0 -8 5 -14 10 -14 15 0 12 24 -6 46
l-16 19 6 -18z" />
    <path d="M466 1648 c-6 -28 -2 -48 8 -37 8 10 15 69 7 69 -5 0 -11 -14 -15
-32z" />
    <path d="M540 1654 c-12 -30 -13 -44 -2 -44 4 0 12 16 18 35 l11 35 -9 0 c-5
0 -13 -12 -18 -26z" />
    <path d="M1270 1656 c0 -8 5 -18 10 -21 l10 -6 0 20 c0 12 -4 21 -10 21 -5 0
-10 -6 -10 -14z" />
    <path d="M327 1610 c-4 -9 -6 -110 -5 -225 l3 -210 485 0 485 0 3 213 2 212
-10 0 -10 0 0 -205 0 -205 -470 0 -470 0 -2 218 -3 217 -8 -15z" />
    <path d="M526 1563 l-7 -23 -18 0 c-9 0 -22 5 -29 12 l-12 12 0 -10 c0 -15 22
-34 41 -34 22 0 42 25 37 47 l-4 18 -8 -22z" />
    <path d="M1406 1151 l-7 -11 73 0 c40 0 97 -7 126 -14 28 -8 52 -10 52 -6 0
15 -70 31 -156 37 l-81 6 -7 -12z" />
    <path d="M1357 1143 c-4 -3 -7 -114 -7 -245 l0 -238 10 0 c6 0 10 16 10 37 l0
36 18 -16 c21 -20 38 -22 47 -6 l7 10 -13 -2 c-29 -3 -39 2 -39 19 0 10 5 23
12 30 l12 12 -10 0 c-6 0 -15 -5 -22 -12 l-12 -12 0 185 0 185 12 12 12 12
-15 0 c-9 0 -19 -3 -22 -7z" />
    <path d="M1660 1110 c0 -6 4 -9 9 -6 5 4 12 1 14 -4 l6 -10 -3 12 c-3 15 -26
23 -26 8z" />
    <path d="M1700 1090 c0 -7 3 -10 7 -7 3 4 3 10 0 14 -4 3 -7 0 -7 -7z" />
    <path d="M1783 1021 c35 -33 72 -76 82 -95 11 -20 23 -36 28 -36 5 0 -1 17
-14 38 -25 42 -132 152 -149 152 -6 0 18 -27 53 -59z" />
    <path d="M1897 860 c3 -11 9 -20 14 -20 5 0 9 -7 9 -15 0 -8 5 -15 11 -15 l10
0 -7 23 c-13 42 -48 68 -37 27z" />
    <path d="M1930 786 c0 -8 5 -18 10 -21 l10 -6 0 20 c0 12 -4 21 -10 21 -5 0
-10 -6 -10 -14z" />
    <path d="M1433 755 c7 -14 15 -25 20 -25 10 0 9 8 -3 31 -16 28 -30 23 -17 -6z" />
    <path d="M1940 685 l0 -55 10 0 10 0 0 55 0 55 -10 0 -10 0 0 -55z" />
    <path d="M1467 692 c-18 -20 -22 -42 -8 -42 5 0 11 9 14 20 3 11 11 20 19 20
8 0 85 -71 172 -157 l157 -157 15 9 c18 12 68 95 57 95 -4 0 -21 -21 -36 -47
l-28 -46 -163 161 c-89 89 -167 162 -173 162 -5 0 -17 -8 -26 -18z" />
    <path d="M1340 588 c-1 -13 -9 -48 -20 -78 -10 -30 -17 -57 -14 -59 6 -7 42
80 49 122 l7 37 -11 0 c-6 0 -11 -10 -11 -22z" />
    <path d="M1938 605 c-3 -6 -9 -25 -13 -42 -3 -18 -10 -33 -15 -33 -4 0 -10 -9
-13 -20 -6 -22 5 -27 20 -7 15 18 35 85 31 99 l-4 12 -6 -9z" />
    <path d="M1260 391 c-12 -17 -17 -31 -12 -31 12 0 46 50 39 56 -3 3 -15 -9
-27 -25z" />
    <path d="M1214 329 l-19 -21 28 -24 c16 -13 33 -24 39 -24 l10 0 -12 15 c-6 8
-21 17 -32 21 l-20 6 23 24 c12 13 18 24 12 24 -5 0 -18 -9 -29 -21z" />
    <path d="M1756 324 c-9 -24 -7 -28 9 -14 17 14 20 30 6 30 -5 0 -12 -7 -15
-16z" />
    <path d="M1714 292 c-11 -9 -24 -18 -29 -19 -31 -8 -117 -41 -123 -48 -4 -4 8
-4 27 0 61 13 162 67 150 80 -3 3 -14 -3 -25 -13z" />
    <path d="M1286 251 c5 -5 19 -12 32 -16 l22 -6 0 9 c0 9 -32 22 -54 22 l-10 0
10 -9z" />
    <path d="M1350 230 c0 -5 7 -10 15 -10 8 0 15 5 15 10 0 6 -7 10 -15 10 -8 0
-15 -4 -15 -10z" />
    <path d="M1400 220 c0 -5 11 -10 25 -10 14 0 25 5 25 10 0 6 -11 10 -25 10
-14 0 -25 -4 -25 -10z" />
    <path d="M1490 220 c0 -5 11 -10 24 -10 14 0 28 5 31 10 l6 10 -30 0 c-17 0
-31 -4 -31 -10z" />
  </g>
  <g transform="translate(0.000000,225.000000) scale(0.100000,-0.100000)" fill="#00a8df" stroke="none">
    <path d="M322 858 l5 -263 16 -50 c9 -28 36 -77 60 -110 45 -62 118 -134 156
-154 l21 -12 0 11 c0 5 -4 10 -8 10 -4 0 -38 27 -75 60 -38 33 -65 60 -62 60
7 0 -34 62 -47 70 -4 3 -15 26 -25 50 l-17 45 -4 263 -3 262 335 0 336 0 0
-100 0 -100 25 -12 26 -12 17 18 17 17 -29 -7 -28 -7 -9 14 c-5 8 -9 58 -9
112 l0 97 -351 0 -351 0 4 -262z" />
    <path d="M1080 1108 l0 -13 100 3 100 3 0 -238 0 -238 10 15 10 15 0 233 0
232 -110 0 -110 0 0 -12z" />
    <path d="M1022 758 c-16 -16 -15 -36 2 -54 18 -17 38 -18 54 -2 16 16 15 36
-2 54 -18 17 -38 18 -54 2z m48 -14 l13 -15 -16 -17 -17 -16 -17 16 -16 17 13
15 c7 9 16 16 20 16 4 0 13 -7 20 -16z" />
    <path d="M1269 595 c-3 -45 -4 -50 -9 -55 -3 -3 -19 -33 -36 -68 -18 -35 -27
-61 -20 -59 16 5 73 124 81 170 l7 37 -11 0 c-6 0 -12 -11 -12 -25z" />
    <path d="M1140 361 c-25 -21 -43 -41 -40 -44 3 -3 28 14 55 38 28 24 46 44 40
45 -5 0 -30 -18 -55 -39z" />
    <path d="M1053 296 c-18 -11 -33 -24 -33 -29 0 -10 57 19 65 34 12 19 1 17
-32 -5z" />
    <path d="M590 271 c0 -5 7 -11 15 -15 8 -3 15 -1 15 3 0 5 -7 11 -15 15 -8 3
-15 1 -15 -3z" />
    <path d="M988 262 c-10 -2 -18 -8 -18 -13 0 -11 11 -11 30 1 18 11 11 18 -12
12z" />
    <path d="M630 250 c0 -5 5 -10 10 -10 6 0 10 5 10 10 0 6 -4 10 -10 10 -5 0
-10 -4 -10 -10z" />
    <path d="M660 240 c0 -5 5 -10 10 -10 6 0 10 5 10 10 0 6 -4 10 -10 10 -5 0
-10 -4 -10 -10z" />
    <path d="M940 240 c0 -5 5 -10 10 -10 6 0 10 5 10 10 0 6 -4 10 -10 10 -5 0
-10 -4 -10 -10z" />
    <path d="M690 230 c0 -5 7 -10 15 -10 8 0 15 5 15 10 0 6 -7 10 -15 10 -8 0
-15 -4 -15 -10z" />
    <path d="M900 230 c0 -5 7 -10 15 -10 8 0 15 5 15 10 0 6 -7 10 -15 10 -8 0
-15 -4 -15 -10z" />
    <path d="M735 220 l6 -10 69 0 69 0 6 10 6 10 -81 0 -81 0 6 -10z" />
  </g>
  <g transform="translate(0.000000,225.000000) scale(0.100000,-0.100000)" fill="#bac1c8" stroke="none">
    <path d="M748 2033 c7 -3 16 -2 19 1 4 3 -2 6 -13 5 l-19 -1 13 -5z" />
    <path d="M940 2009 c0 -5 5 -7 10 -4 6 3 10 8 10 11 0 2 -4 4 -10 4 -5 0 -10
-5 -10 -11z" />
    <path d="M429 1853 l-14 -18 18 14 c9 7 17 15 17 17 0 8 -8 3 -21 -13z" />
    <path d="M1200 1831 c0 -5 5 -13 10 -16 6 -3 10 -2 10 4 0 5 -4 13 -10 16 -5
3 -10 2 -10 -4z" />
    <path d="M393 1803 c-15 -5 -17 -23 -4 -23 5 0 11 7 15 15 3 8 4 15 3 14 -1 0
-8 -3 -14 -6z" />
    <path d="M529 1763 l-14 -18 18 14 c9 7 17 15 17 17 0 8 -8 3 -21 -13z" />
    <path d="M590 1745 l-12 -15 10 0 c5 0 12 7 16 15 3 8 4 15 2 15 -2 0 -9 -7
-16 -15z" />
    <path d="M530 1625 c0 -8 4 -15 8 -15 5 0 9 7 9 15 0 8 -4 15 -9 15 -4 0 -8
-7 -8 -15z" />
    <path d="M322 1580 c0 -14 2 -19 5 -12 2 6 2 18 0 25 -3 6 -5 1 -5 -13z" />
    <path d="M466 1545 c4 -8 11 -15 16 -15 l10 0 -12 15 c-7 8 -14 15 -16 15 -2
0 -1 -7 2 -15z" />
    <path d="M320 1178 c0 -5 221 -8 490 -8 270 0 490 3 490 8 0 4 -220 7 -490 7
-269 0 -490 -3 -490 -7z" />
    <path d="M1418 1153 c7 -3 16 -2 19 1 4 3 -2 6 -13 5 l-19 -1 13 -5z" />
    <path d="M1355 1140 c-3 -5 -2 -10 4 -10 5 0 13 5 16 10 3 6 2 10 -4 10 -5 0
-13 -4 -16 -10z" />
    <path d="M1633 1123 c4 -3 10 -3 14 0 3 4 0 7 -7 7 -7 0 -10 -3 -7 -7z" />
    <path d="M1951 714 l1 -19 5 13 c3 7 2 16 -1 19 -3 4 -6 -2 -5 -13z" />
    <path d="M1660 535 c90 -90 166 -163 168 -160 5 4 -317 325 -326 325 -4 0 67
-74 158 -165z" />
    <path d="M1951 654 l1 -19 5 13 c3 7 2 16 -1 19 -3 4 -6 -2 -5 -13z" />
    <path d="M1287 433 c-4 -3 -7 -11 -7 -17 l0 -10 12 12 c6 6 9 14 7 17 -3 3 -9
2 -12 -2z" />
    <path d="M1195 311 c-3 -5 -1 -12 5 -16 l10 -6 0 15 c0 18 -6 21 -15 7z" />
    <path d="M1715 290 c-3 -5 -2 -10 4 -10 5 0 13 5 16 10 3 6 2 10 -4 10 -5 0
-13 -4 -16 -10z" />
    <path d="M1247 269 c7 -7 15 -10 18 -7 3 3 -2 9 -12 12 l-18 7 12 -12z" />
    <path d="M1518 213 c7 -3 16 -2 19 1 4 3 -2 6 -13 5 l-19 -1 13 -5z" />
  </g>
  <g transform="translate(0.000000,225.000000) scale(0.100000,-0.100000)" fill="#08304e" stroke="none">
    <path d="M775 2030 c3 -5 19 -10 35 -10 16 0 32 5 35 10 l6 10 -41 0 -41 0 6
-10z" />
    <path d="M705 2020 c3 -5 8 -10 11 -10 2 0 4 5 4 10 0 6 -5 10 -11 10 -5 0 -7
-4 -4 -10z" />
    <path d="M900 2019 c0 -5 5 -7 10 -4 6 3 10 8 10 11 0 2 -4 4 -10 4 -5 0 -10
-5 -10 -11z" />
    <path d="M665 2010 c3 -5 8 -10 11 -10 2 0 4 5 4 10 0 6 -5 10 -11 10 -5 0 -7
-4 -4 -10z" />
    <path d="M940 2010 c0 -7 3 -10 7 -7 3 4 3 10 0 14 -4 3 -7 0 -7 -7z" />
    <path d="M635 2000 c3 -5 8 -10 11 -10 2 0 4 5 4 10 0 6 -5 10 -11 10 -5 0 -7
-4 -4 -10z" />
    <path d="M970 1999 c0 -5 5 -7 10 -4 6 3 10 8 10 11 0 2 -4 4 -10 4 -5 0 -10
-5 -10 -11z" />
    <path d="M600 1990 l-15 -10 12 0 c6 0 15 5 18 10 8 12 4 12 -15 0z" />
    <path d="M515 1940 c-3 -5 -2 -10 4 -10 5 0 13 5 16 10 3 6 2 10 -4 10 -5 0
-13 -4 -16 -10z" />
    <path d="M1080 1939 c0 -5 5 -7 10 -4 6 3 10 8 10 11 0 2 -4 4 -10 4 -5 0 -10
-5 -10 -11z" />
    <path d="M420 1840 c0 -5 5 -10 11 -10 5 0 7 5 4 10 -3 6 -8 10 -11 10 -2 0
-4 -4 -4 -10z" />
    <path d="M580 1829 c0 -5 5 -7 10 -4 6 3 10 8 10 11 0 2 -4 4 -10 4 -5 0 -10
-5 -10 -11z" />
    <path d="M1213 1814 c9 -11 14 -23 11 -26 -3 -3 -1 -9 5 -13 l11 -6 0 14 c0 8
-10 22 -22 33 l-23 19 18 -21z" />
    <path d="M400 1810 c0 -5 5 -10 10 -10 6 0 10 5 10 10 0 6 -4 10 -10 10 -5 0
-10 -4 -10 -10z" />
    <path d="M540 1789 c0 -5 5 -7 10 -4 6 3 10 8 10 11 0 2 -4 4 -10 4 -5 0 -10
-5 -10 -11z" />
    <path d="M513 1753 c4 -3 10 -3 14 0 3 4 0 7 -7 7 -7 0 -10 -3 -7 -7z" />
    <path d="M1240 1752 c0 -4 4 -12 10 -18 5 -5 11 -19 13 -31 4 -26 17 -43 17
-23 0 22 -23 80 -32 80 -4 0 -8 -4 -8 -8z" />
    <path d="M556 1694 c-8 -21 -8 -24 3 -24 12 0 22 28 12 35 -5 3 -12 -2 -15
-11z" />
    <path d="M336 1674 c-8 -21 -8 -49 1 -41 7 7 14 57 8 57 -1 0 -6 -7 -9 -16z" />
    <path d="M475 1670 c3 -5 8 -10 11 -10 2 0 4 5 4 10 0 6 -5 10 -11 10 -5 0 -7
-4 -4 -10z" />
    <path d="M535 1640 c-3 -5 -1 -10 4 -10 6 0 11 5 11 10 0 6 -2 10 -4 10 -3 0
-8 -4 -11 -10z" />
    <path d="M530 1604 l0 -15 10 6 c6 3 10 10 10 16 0 5 -4 9 -10 9 -5 0 -10 -7
-10 -16z" />
    <path d="M455 1571 c-3 -5 -1 -12 5 -16 l10 -6 0 15 c0 18 -6 21 -15 7z" />
    <path d="M513 1546 c-16 -19 -4 -29 13 -11 8 7 14 16 14 19 0 10 -15 6 -27 -8z" />
    <path d="M473 1533 c4 -3 10 -3 14 0 3 4 0 7 -7 7 -7 0 -10 -3 -7 -7z" />
    <path d="M1555 1140 c4 -6 11 -8 16 -5 14 9 11 15 -7 15 l-15 0 6 -10z" />
    <path d="M1595 1130 c4 -6 11 -8 16 -5 14 9 11 15 -7 15 l-15 0 6 -10z" />
    <path d="M1790 1022 c0 -12 19 -26 26 -19 2 2 -2 10 -11 17 l-15 12 0 -10z" />
    <path d="M1912 851 l-14 -8 17 -7 c9 -3 14 -10 10 -15 -3 -5 -1 -12 5 -16 11
-7 12 11 2 37 l-7 17 -13 -8z" />
    <path d="M1405 780 l-6 -10 16 0 16 0 -6 10 c-3 6 -8 10 -10 10 -2 0 -7 -4
-10 -10z" />
    <path d="M1375 750 c3 -5 8 -10 11 -10 2 0 4 5 4 10 0 6 -5 10 -11 10 -5 0 -7
-4 -4 -10z" />
    <path d="M1380 720 c0 -5 5 -10 11 -10 5 0 7 5 4 10 -3 6 -8 10 -11 10 -2 0
-4 -4 -4 -10z" />
    <path d="M1471 693 c-18 -19 -10 -25 12 -8 10 7 15 15 10 18 -4 3 -14 -2 -22
-10z" />
    <path d="M1350 655 l0 -26 10 6 c6 3 10 12 10 20 0 8 -4 17 -10 20 l-10 6 0
-26z" />
    <path d="M1615 480 c87 -87 161 -157 164 -154 7 6 -301 314 -314 314 -5 0 62
-72 150 -160z" />
    <path d="M1347 613 c-4 -3 -7 -18 -7 -31 0 -31 12 -21 16 13 3 26 1 29 -9 18z" />
    <path d="M1929 567 c-1 -4 -2 -12 -3 -17 0 -6 -7 -14 -14 -19 l-14 -8 15 -6
15 -6 7 26 c3 14 4 28 0 31 -3 3 -6 2 -6 -1z" />
    <path d="M1330 540 c0 -5 5 -10 11 -10 5 0 7 5 4 10 -3 6 -8 10 -11 10 -2 0
-4 -4 -4 -10z" />
    <path d="M1317 499 l-5 -20 14 12 c7 6 11 15 8 20 -8 13 -11 11 -17 -12z" />
    <path d="M1230 350 c0 -5 5 -10 11 -10 5 0 7 5 4 10 -3 6 -8 10 -11 10 -2 0
-4 -4 -4 -10z" />
    <path d="M1200 305 c0 -9 31 -34 43 -35 4 0 7 5 7 12 0 6 -3 8 -7 5 -3 -4 -15
0 -25 10 -10 9 -18 13 -18 8z" />
    <path d="M1645 250 l-6 -10 15 6 c18 7 21 14 7 14 -6 0 -13 -4 -16 -10z" />
    <path d="M1325 240 l-6 -10 16 0 16 0 -6 10 c-3 6 -8 10 -10 10 -2 0 -7 -4
-10 -10z" />
    <path d="M1365 230 l-6 -10 16 0 16 0 -6 10 c-3 6 -8 10 -10 10 -2 0 -7 -4
-10 -10z" />
    <path d="M1585 230 l-6 -10 15 6 c18 7 21 14 7 14 -6 0 -13 -4 -16 -10z" />
    <path d="M1435 220 l-6 -10 41 0 41 0 -6 10 c-3 6 -19 10 -35 10 -16 0 -32 -4
-35 -10z" />
    <path d="M1548 223 c7 -3 16 -2 19 1 4 3 -2 6 -13 5 l-19 -1 13 -5z" />
  </g>
  <g transform="translate(0.000000,225.000000) scale(0.100000,-0.100000)" fill="#87cfec" stroke="none">
    <path d="M320 1113 c0 -7 263 -7 580 0 69 1 -34 4 -227 5 -194 1 -353 -1 -353
-5z" />
    <path d="M1080 1113 c0 -5 50 -8 110 -8 61 0 110 3 110 8 0 4 -49 7 -110 7
-60 0 -110 -3 -110 -7z" />
    <path d="M1064 898 l-7 -11 11 7 c12 7 16 16 8 16 -3 0 -8 -5 -12 -12z" />
    <path d="M1281 604 l1 -19 5 13 c3 7 2 16 -1 19 -3 4 -6 -2 -5 -13z" />
    <path d="M341 560 c0 -8 4 -24 9 -35 l9 -20 0 15 c0 8 -4 24 -9 35 l-9 20 0
-15z" />
    <path d="M430 396 c0 -2 8 -10 18 -17 l17 -14 -14 18 c-13 16 -21 21 -21 13z" />
    <path d="M1169 373 l-14 -18 18 14 c16 13 21 21 13 21 -2 0 -10 -8 -17 -17z" />
    <path d="M1119 333 l-14 -18 18 14 c16 13 21 21 13 21 -2 0 -10 -8 -17 -17z" />
    <path d="M490 336 c0 -2 8 -10 18 -17 l17 -14 -14 18 c-13 16 -21 21 -21 13z" />
    <path d="M530 306 c0 -2 8 -10 18 -17 l17 -14 -14 18 c-13 16 -21 21 -21 13z" />
    <path d="M768 213 c6 -2 18 -2 25 0 6 3 1 5 -13 5 -14 0 -19 -2 -12 -5z" />
    <path d="M828 213 c7 -3 16 -2 19 1 4 3 -2 6 -13 5 l-19 -1 13 -5z" />
  </g>
  <g transform="translate(0.000000,225.000000) scale(0.100000,-0.100000)" fill="#c6ccd2" stroke="none">
    <path d="M850 2036 c0 -2 7 -6 15 -10 8 -3 15 -1 15 4 0 6 -7 10 -15 10 -8 0
-15 -2 -15 -4z" />
    <path d="M633 2003 c4 -3 10 -3 14 0 3 4 0 7 -7 7 -7 0 -10 -3 -7 -7z" />
    <path d="M970 2006 c0 -2 7 -7 16 -10 l15 -6 -6 10 c-6 10 -25 14 -25 6z" />
    <path d="M1090 1946 c0 -2 8 -10 18 -17 l17 -14 -14 18 c-13 16 -21 21 -21 13z" />
    <path d="M600 1840 l-15 -10 12 0 c6 0 15 5 18 10 8 12 4 12 -15 0z" />
    <path d="M664 1808 l-19 -23 23 19 c21 18 27 26 19 26 -2 0 -12 -10 -23 -22z" />
    <path d="M1230 1781 c0 -5 5 -13 10 -16 6 -3 10 -2 10 4 0 5 -4 13 -10 16 -5
3 -10 2 -10 -4z" />
    <path d="M365 1759 c-4 -6 -5 -12 -2 -15 2 -3 7 2 10 11 7 17 1 20 -8 4z" />
    <path d="M496 1713 l-7 -18 12 12 c7 7 10 15 7 18 -3 3 -9 -2 -12 -12z" />
    <path d="M480 1670 c0 -7 3 -10 7 -7 3 4 3 10 0 14 -4 3 -7 0 -7 -7z" />
    <path d="M330 1660 c0 -7 3 -10 7 -7 3 4 3 10 0 14 -4 3 -7 0 -7 -7z" />
    <path d="M466 1625 c-3 -8 -1 -15 4 -15 6 0 10 7 10 15 0 8 -2 15 -4 15 -2 0
-6 -7 -10 -15z" />
    <path d="M320 1600 c0 -7 3 -10 7 -7 3 4 3 10 0 14 -4 3 -7 0 -7 -7z" />
    <path d="M1288 1384 c-2 -113 0 -208 5 -211 4 -2 7 91 7 206 0 116 -2 211 -5
211 -2 0 -6 -93 -7 -206z" />
    <path d="M498 1533 c7 -3 16 -2 19 1 4 3 -2 6 -13 5 l-19 -1 13 -5z" />
    <path d="M1510 1156 c0 -2 7 -6 15 -10 8 -3 15 -1 15 4 0 6 -7 10 -15 10 -8 0
-15 -2 -15 -4z" />
    <path d="M1720 1082 c0 -5 11 -14 25 -20 14 -6 25 -10 25 -8 0 2 -11 11 -25
20 -14 9 -25 13 -25 8z" />
    <path d="M1922 839 c6 -16 12 -28 14 -26 5 5 -13 57 -20 57 -3 0 0 -14 6 -31z" />
    <path d="M1945 730 c3 -5 8 -10 11 -10 2 0 4 5 4 10 0 6 -5 10 -11 10 -5 0 -7
-4 -4 -10z" />
    <path d="M1393 713 c4 -3 10 -3 14 0 3 4 0 7 -7 7 -7 0 -10 -3 -7 -7z" />
    <path d="M1423 713 c4 -3 10 -3 14 0 3 4 0 7 -7 7 -7 0 -10 -3 -7 -7z" />
    <path d="M1461 664 l1 -19 5 13 c3 7 2 16 -1 19 -3 4 -6 -2 -5 -13z" />
    <path d="M1945 640 c-3 -5 -1 -10 4 -10 6 0 11 5 11 10 0 6 -2 10 -4 10 -3 0
-8 -4 -11 -10z" />
    <path d="M1573 623 c4 -3 10 -3 14 0 3 4 0 7 -7 7 -7 0 -10 -3 -7 -7z" />
    <path d="M1341 594 l1 -19 5 13 c3 7 2 16 -1 19 -3 4 -6 -2 -5 -13z" />
    <path d="M1922 531 c-6 -17 -9 -31 -6 -31 7 0 25 52 20 57 -2 2 -8 -10 -14
-26z" />
    <path d="M1320 510 c0 -7 3 -10 7 -7 3 4 3 10 0 14 -4 3 -7 0 -7 -7z" />
    <path d="M1300 461 c-12 -24 -13 -34 -1 -27 9 6 22 46 15 46 -2 0 -8 -9 -14
-19z" />
    <path d="M1837 398 c-10 -11 -17 -22 -14 -24 2 -2 12 5 22 16 23 26 16 33 -8
8z" />
    <path d="M1800 400 c0 -7 3 -10 7 -7 3 4 3 10 0 14 -4 3 -7 0 -7 -7z" />
    <path d="M1239 363 l-14 -18 18 14 c16 13 21 21 13 21 -2 0 -10 -8 -17 -17z" />
    <path d="M1754 308 l-7 -11 11 7 c12 7 16 16 8 16 -3 0 -8 -5 -12 -12z" />
    <path d="M1200 300 c0 -7 3 -10 7 -7 3 4 3 10 0 14 -4 3 -7 0 -7 -7z" />
    <path d="M1265 260 c3 -5 11 -10 16 -10 6 0 7 5 4 10 -3 6 -11 10 -16 10 -6 0
-7 -4 -4 -10z" />
    <path d="M1317 239 c7 -7 15 -10 18 -7 3 3 -2 9 -12 12 l-18 7 12 -12z" />
    <path d="M1400 220 c0 -6 7 -10 15 -10 8 0 15 2 15 4 0 2 -7 6 -15 10 -8 3
-15 1 -15 -4z" />
    <path d="M1534 218 l-7 -11 11 7 c7 4 12 9 12 12 0 8 -9 4 -16 -8z" />
    <path d="M1573 223 c4 -3 10 -3 14 0 3 4 0 7 -7 7 -7 0 -10 -3 -7 -7z" />
  </g>
  <g transform="translate(0.000000,225.000000) scale(0.100000,-0.100000)" fill="#929ca8" stroke="none">
    <path d="M768 2033 c7 -3 16 -2 19 1 4 3 -2 6 -13 5 l-19 -1 13 -5z" />
    <path d="M838 2033 c7 -3 16 -2 19 1 4 3 -2 6 -13 5 l-19 -1 13 -5z" />
    <path d="M584 1978 l-7 -11 11 7 c12 7 16 16 8 16 -3 0 -8 -5 -12 -12z" />
    <path d="M499 1923 l-14 -18 18 14 c9 7 17 15 17 17 0 8 -8 3 -21 -13z" />
    <path d="M1166 1875 c4 -8 11 -15 16 -15 l10 0 -12 15 c-7 8 -14 15 -16 15 -2
0 -1 -7 2 -15z" />
    <path d="M444 1868 l-7 -11 11 7 c12 7 16 16 8 16 -3 0 -8 -5 -12 -12z" />
    <path d="M614 1848 l-7 -11 11 7 c12 7 16 16 8 16 -3 0 -8 -5 -12 -12z" />
    <path d="M346 1714 c-4 -14 -5 -28 -3 -31 3 -2 8 8 11 23 4 14 5 28 3 31 -3 2
-8 -8 -11 -23z" />
    <path d="M569 1713 l-14 -18 18 14 c9 7 17 15 17 17 0 8 -8 3 -21 -13z" />
    <path d="M541 1654 l1 -19 5 13 c3 7 2 16 -1 19 -3 4 -6 -2 -5 -13z" />
    <path d="M1281 1644 l1 -19 5 13 c3 7 2 16 -1 19 -3 4 -6 -2 -5 -13z" />
    <path d="M483 1533 c4 -3 10 -3 14 0 3 4 0 7 -7 7 -7 0 -10 -3 -7 -7z" />
    <path d="M1458 1153 c12 -2 30 -2 40 0 9 3 -1 5 -23 4 l-40 0 23 -4z" />
    <path d="M1352 898 c2 -242 6 -214 10 85 2 86 0 157 -4 157 -5 0 -7 -109 -6
-242z" />
    <path d="M1663 1113 c4 -3 10 -3 14 0 3 4 0 7 -7 7 -7 0 -10 -3 -7 -7z" />
    <path d="M1941 774 l1 -19 5 13 c3 7 2 16 -1 19 -3 4 -6 -2 -5 -13z" />
    <path d="M1420 776 c0 -2 8 -10 18 -17 l17 -14 -14 18 c-13 16 -21 21 -21 13z" />
    <path d="M1884 468 l-7 -11 11 7 c12 7 16 16 8 16 -3 0 -8 -5 -12 -12z" />
    <path d="M1273 408 c-15 -20 -25 -38 -20 -38 3 0 12 11 21 25 17 26 16 35 -1
13z" />
    <path d="M1699 273 l-14 -18 18 14 c16 13 21 21 13 21 -2 0 -10 -8 -17 -17z" />
    <path d="M1563 223 c4 -3 10 -3 14 0 3 4 0 7 -7 7 -7 0 -10 -3 -7 -7z" />
    <path d="M1498 213 c7 -3 16 -2 19 1 4 3 -2 6 -13 5 l-19 -1 13 -5z" />
  </g>
  <g transform="translate(0.000000,225.000000) scale(0.100000,-0.100000)" fill="#cbeaf7" stroke="none">
    <path d="M320 1110 c0 -7 3 -10 7 -7 3 4 3 10 0 14 -4 3 -7 0 -7 -7z" />
    <path d="M1294 885 c0 -132 2 -185 3 -117 2 68 2 176 0 240 -1 64 -3 9 -3
-123z" />
    <path d="M1020 910 c0 -7 3 -10 7 -7 3 4 3 10 0 14 -4 3 -7 0 -7 -7z" />
    <path d="M1069 747 l14 -17 -19 -21 -18 -20 16 6 c9 4 19 14 23 23 l6 16 -18
15 -17 16 13 -18z" />
    <path d="M321 654 l1 -19 5 13 c3 7 2 16 -1 19 -3 4 -6 -2 -5 -13z" />
    <path d="M330 590 c0 -7 3 -10 7 -7 3 4 3 10 0 14 -4 3 -7 0 -7 -7z" />
    <path d="M1276 583 l-7 -18 12 12 c7 7 10 15 7 18 -3 3 -9 -2 -12 -12z" />
    <path d="M1266 543 l-7 -18 12 12 c7 7 10 15 7 18 -3 3 -9 -2 -12 -12z" />
    <path d="M345 540 c3 -5 8 -10 11 -10 3 0 2 5 -1 10 -3 6 -8 10 -11 10 -3 0
-2 -4 1 -10z" />
    <path d="M355 510 c3 -5 8 -10 11 -10 3 0 2 5 -1 10 -3 6 -8 10 -11 10 -3 0
-2 -4 1 -10z" />
    <path d="M1237 475 c-9 -19 -15 -35 -12 -35 7 0 37 61 33 66 -3 2 -12 -12 -21
-31z" />
    <path d="M400 445 c0 -5 10 -21 21 -35 l20 -25 -10 20 c-17 33 -31 51 -31 40z" />
    <path d="M1184 388 l-7 -11 11 7 c7 4 12 9 12 12 0 8 -9 4 -16 -8z" />
    <path d="M1104 318 l-7 -11 11 7 c7 4 12 9 12 12 0 8 -9 4 -16 -8z" />
    <path d="M517 309 c7 -7 15 -10 18 -7 3 3 -2 9 -12 12 l-18 7 12 -12z" />
    <path d="M1060 290 l-15 -10 12 0 c6 0 15 5 18 10 8 12 4 12 -15 0z" />
    <path d="M553 283 c4 -3 10 -3 14 0 3 4 0 7 -7 7 -7 0 -10 -3 -7 -7z" />
    <path d="M980 250 l-15 -10 12 0 c6 0 15 5 18 10 8 12 4 12 -15 0z" />
    <path d="M693 223 c4 -3 10 -3 14 0 3 4 0 7 -7 7 -7 0 -10 -3 -7 -7z" />
    <path d="M913 223 c4 -3 10 -3 14 0 3 4 0 7 -7 7 -7 0 -10 -3 -7 -7z" />
    <path d="M743 213 c4 -3 10 -3 14 0 3 4 0 7 -7 7 -7 0 -10 -3 -7 -7z" />
    <path d="M863 213 c4 -3 10 -3 14 0 3 4 0 7 -7 7 -7 0 -10 -3 -7 -7z" />
  </g>
  <g transform="translate(0.000000,225.000000) scale(0.100000,-0.100000)" fill="#b1b8c0" stroke="none">
    <path d="M658 2013 c7 -3 16 -2 19 1 4 3 -2 6 -13 5 l-19 -1 13 -5z" />
    <path d="M993 1993 c4 -3 10 -3 14 0 3 4 0 7 -7 7 -7 0 -10 -3 -7 -7z" />
    <path d="M1030 1976 c0 -2 7 -7 16 -10 l15 -6 -6 10 c-6 10 -25 14 -25 6z" />
    <path d="M514 1938 l-7 -11 11 7 c12 7 16 16 8 16 -3 0 -8 -5 -12 -12z" />
    <path d="M1170 1866 c0 -2 7 -7 16 -10 l15 -6 -6 10 c-6 10 -25 14 -25 6z" />
    <path d="M375 1779 c-4 -6 -5 -12 -2 -15 2 -3 7 2 10 11 7 17 1 20 -8 4z" />
    <path d="M620 1775 l-12 -15 10 0 c12 0 26 19 19 26 -2 2 -10 -2 -17 -11z" />
    <path d="M504 1728 l-7 -11 11 7 c12 7 16 16 8 16 -3 0 -8 -5 -12 -12z" />
    <path d="M490 1700 c0 -7 3 -10 7 -7 3 4 3 10 0 14 -4 3 -7 0 -7 -7z" />
    <path d="M1271 1694 l1 -19 5 13 c3 7 2 16 -1 19 -3 4 -6 -2 -5 -13z" />
    <path d="M1275 1660 c3 -5 8 -10 11 -10 2 0 4 5 4 10 0 6 -5 10 -11 10 -5 0
-7 -4 -4 -10z" />
    <path d="M320 1370 c0 -112 3 -201 6 -198 7 7 5 390 -1 397 -3 2 -5 -87 -5
-199z" />
    <path d="M1503 1153 c4 -3 10 -3 14 0 3 4 0 7 -7 7 -7 0 -10 -3 -7 -7z" />
    <path d="M1608 1133 c7 -3 16 -2 19 1 4 3 -2 6 -13 5 l-19 -1 13 -5z" />
    <path d="M1900 870 c0 -5 5 -10 10 -10 6 0 10 5 10 10 0 6 -4 10 -10 10 -5 0
-10 -4 -10 -10z" />
    <path d="M1935 790 c3 -5 8 -10 11 -10 2 0 4 5 4 10 0 6 -5 10 -11 10 -5 0 -7
-4 -4 -10z" />
    <path d="M1381 744 l1 -19 5 13 c3 7 2 16 -1 19 -3 4 -6 -2 -5 -13z" />
    <path d="M1952 685 l0 -30 5 18 c2 9 2 23 0 30 -3 6 -5 -1 -5 -18z" />
    <path d="M1941 584 l1 -19 5 13 c3 7 2 16 -1 19 -3 4 -6 -2 -5 -13z" />
    <path d="M1331 544 l1 -19 5 13 c3 7 2 16 -1 19 -3 4 -6 -2 -5 -13z" />
    <path d="M1633 243 c4 -3 10 -3 14 0 3 4 0 7 -7 7 -7 0 -10 -3 -7 -7z" />
    <path d="M1423 213 c4 -3 10 -3 14 0 3 4 0 7 -7 7 -7 0 -10 -3 -7 -7z" />
  </g>
  <g transform="translate(0.000000,225.000000) scale(0.100000,-0.100000)" fill="#b1def2" stroke="none">
    <path d="M324 885 c0 -126 2 -177 3 -112 2 65 2 168 0 230 -1 62 -3 9 -3 -118z" />
    <path d="M1024 748 l-7 -11 11 7 c7 4 12 9 12 12 0 8 -9 4 -16 -8z" />
    <path d="M1020 716 c0 -2 8 -10 18 -17 l17 -14 -14 18 c-13 16 -21 21 -21 13z" />
    <path d="M1270 560 c0 -7 3 -10 7 -7 3 4 3 10 0 14 -4 3 -7 0 -7 -7z" />
    <path d="M361 508 c-2 -15 22 -57 35 -62 l13 -5 -6 15 c-3 7 -8 14 -13 14 -4
0 -12 10 -18 23 -6 12 -11 19 -11 15z" />
    <path d="M1204 418 l-7 -11 11 7 c7 4 12 9 12 12 0 8 -9 4 -16 -8z" />
    <path d="M1040 280 l-15 -10 12 0 c6 0 15 5 18 10 8 12 4 12 -15 0z" />
    <path d="M993 253 c4 -3 10 -3 14 0 3 4 0 7 -7 7 -7 0 -10 -3 -7 -7z" />
    <path d="M633 243 c4 -3 10 -3 14 0 3 4 0 7 -7 7 -7 0 -10 -3 -7 -7z" />
    <path d="M663 233 c4 -3 10 -3 14 0 3 4 0 7 -7 7 -7 0 -10 -3 -7 -7z" />
    <path d="M943 233 c4 -3 10 -3 14 0 3 4 0 7 -7 7 -7 0 -10 -3 -7 -7z" />
    <path d="M753 213 c4 -3 10 -3 14 0 3 4 0 7 -7 7 -7 0 -10 -3 -7 -7z" />
    <path d="M848 213 c7 -3 16 -2 19 1 4 3 -2 6 -13 5 l-19 -1 13 -5z" />
  </g>
  <g transform="translate(0.000000,225.000000) scale(0.100000,-0.100000)" fill="#40566b" stroke="none">
    <path d="M545 1960 c-16 -11 -25 -20 -19 -20 11 0 64 39 54 40 -3 0 -18 -9
-35 -20z" />
    <path d="M635 1860 l-6 -10 14 6 15 5 16 -23 c9 -12 16 -18 16 -12 0 11 -32
44 -43 44 -3 0 -9 -4 -12 -10z" />
    <path d="M579 1823 l-14 -18 18 14 c9 7 17 15 17 17 0 8 -8 3 -21 -13z" />
    <path d="M383 1783 c4 -3 10 -3 14 0 3 4 0 7 -7 7 -7 0 -10 -3 -7 -7z" />
    <path d="M354 1738 l-7 -11 11 7 c12 7 16 16 8 16 -3 0 -8 -5 -12 -12z" />
    <path d="M580 1729 c0 -5 5 -7 10 -4 6 3 10 8 10 11 0 2 -4 4 -10 4 -5 0 -10
-5 -10 -11z" />
    <path d="M534 1638 l-7 -11 11 7 c12 7 16 16 8 16 -3 0 -8 -5 -12 -12z" />
    <path d="M530 1600 c0 -7 3 -10 7 -7 3 4 3 10 0 14 -4 3 -7 0 -7 -7z" />
    <path d="M460 1590 c0 -7 3 -10 7 -7 3 4 3 10 0 14 -4 3 -7 0 -7 -7z" />
    <path d="M460 1560 c0 -7 3 -10 7 -7 3 4 3 10 0 14 -4 3 -7 0 -7 -7z" />
    <path d="M1553 1143 c4 -3 10 -3 14 0 3 4 0 7 -7 7 -7 0 -10 -3 -7 -7z" />
    <path d="M1800 1015 c13 -14 26 -25 28 -25 3 0 -5 11 -18 25 -13 14 -26 25
-28 25 -3 0 5 -11 18 -25z" />
    <path d="M1850 964 c0 -7 9 -22 21 -35 l20 -24 -10 20 c-6 11 -15 27 -21 35
l-10 15 0 -11z" />
    <path d="M1930 805 c0 -8 4 -15 10 -15 5 0 7 7 4 15 -4 8 -8 15 -10 15 -2 0
-4 -7 -4 -15z" />
    <path d="M1380 731 c0 -6 4 -13 10 -16 l10 -6 -6 15 c-7 18 -14 21 -14 7z" />
    <path d="M1351 624 l1 -19 5 13 c3 7 2 16 -1 19 -3 4 -6 -2 -5 -13z" />
    <path d="M1620 485 c85 -88 157 -159 160 -157 2 1 -68 73 -155 160 l-160 157
155 -160z" />
    <path d="M1935 569 c-4 -6 -5 -12 -2 -15 2 -3 7 2 10 11 7 17 1 20 -8 4z" />
    <path d="M1310 480 c0 -7 3 -10 7 -7 3 4 3 10 0 14 -4 3 -7 0 -7 -7z" />
    <path d="M1870 445 l-12 -15 10 0 c5 0 12 7 16 15 3 8 4 15 2 15 -2 0 -9 -7
-16 -15z" />
    <path d="M1295 439 c-4 -6 -5 -12 -2 -15 2 -3 7 2 10 11 7 17 1 20 -8 4z" />
    <path d="M1260 390 c0 -7 3 -10 7 -7 3 4 3 10 0 14 -4 3 -7 0 -7 -7z" />
    <path d="M1226 343 l-7 -18 12 12 c7 7 10 15 7 18 -3 3 -9 -2 -12 -12z" />
    <path d="M1261 267 c2 -1 13 -9 24 -17 l20 -15 -14 18 c-7 9 -18 17 -24 17 -6
0 -8 -1 -6 -3z" />
  </g>
  <g transform="translate(0.000000,225.000000) scale(0.100000,-0.100000)" fill="#002144" stroke="none">
    <path d="M734 2028 l-7 -11 11 7 c12 7 16 16 8 16 -3 0 -8 -5 -12 -12z" />
    <path d="M870 2030 c0 -5 5 -10 11 -10 5 0 7 5 4 10 -3 6 -8 10 -11 10 -2 0
-4 -4 -4 -10z" />
    <path d="M690 2019 c0 -5 5 -7 10 -4 6 3 10 8 10 11 0 2 -4 4 -10 4 -5 0 -10
-5 -10 -11z" />
    <path d="M915 2020 c3 -5 8 -10 11 -10 2 0 4 5 4 10 0 6 -5 10 -11 10 -5 0 -7
-4 -4 -10z" />
    <path d="M545 1960 c-3 -5 -1 -10 4 -10 6 0 11 5 11 10 0 6 -2 10 -4 10 -3 0
-8 -4 -11 -10z" />
    <path d="M1055 1960 c3 -5 11 -10 16 -10 6 0 7 5 4 10 -3 6 -11 10 -16 10 -6
0 -7 -4 -4 -10z" />
    <path d="M1110 1920 c0 -5 5 -10 11 -10 5 0 7 5 4 10 -3 6 -8 10 -11 10 -2 0
-4 -4 -4 -10z" />
    <path d="M1200 1830 c0 -7 3 -10 7 -7 3 4 3 10 0 14 -4 3 -7 0 -7 -7z" />
    <path d="M407 1823 c-4 -3 -7 -11 -7 -17 l0 -10 12 12 c6 6 9 14 7 17 -3 3 -9
2 -12 -2z" />
    <path d="M622 1775 c-7 -8 -9 -15 -4 -15 5 0 15 7 22 15 16 19 -1 19 -18 0z" />
    <path d="M1230 1784 c0 -6 7 -19 15 -30 8 -10 14 -14 14 -9 0 6 -6 19 -14 29
-8 11 -15 15 -15 10z" />
    <path d="M583 1733 c4 -3 10 -3 14 0 3 4 0 7 -7 7 -7 0 -10 -3 -7 -7z" />
    <path d="M557 1693 c-4 -3 -7 -11 -7 -17 l0 -10 12 12 c6 6 9 14 7 17 -3 3 -9
2 -12 -2z" />
    <path d="M1270 1670 c0 -5 5 -10 11 -10 5 0 7 5 4 10 -3 6 -8 10 -11 10 -2 0
-4 -4 -4 -10z" />
    <path d="M327 1621 l-6 -24 11 11 c5 5 8 16 6 23 l-4 13 -7 -23z" />
    <path d="M463 1613 c4 -3 10 -3 14 0 3 4 0 7 -7 7 -7 0 -10 -3 -7 -7z" />
    <path d="M1280 1608 c0 -9 5 -20 10 -23 13 -8 13 5 0 25 l-10 15 0 -17z" />
    <path d="M520 1549 c0 -5 5 -7 10 -4 6 3 10 8 10 11 0 2 -4 4 -10 4 -5 0 -10
-5 -10 -11z" />
    <path d="M324 1178 l-7 -11 11 7 c12 7 16 16 8 16 -3 0 -8 -5 -12 -12z" />
    <path d="M1285 1180 c3 -5 8 -10 11 -10 3 0 2 5 -1 10 -3 6 -8 10 -11 10 -3 0
-2 -4 1 -10z" />
    <path d="M1400 1150 l-15 -10 12 0 c6 0 15 5 18 10 8 12 4 12 -15 0z" />
    <path d="M1530 1150 c0 -7 3 -10 7 -7 3 4 3 10 0 14 -4 3 -7 0 -7 -7z" />
    <path d="M1364 1138 l-7 -11 11 7 c12 7 16 16 8 16 -3 0 -8 -5 -12 -12z" />
    <path d="M1723 1073 c4 -3 10 -3 14 0 3 4 0 7 -7 7 -7 0 -10 -3 -7 -7z" />
    <path d="M1860 940 c0 -5 5 -10 11 -10 5 0 7 5 4 10 -3 6 -8 10 -11 10 -2 0
-4 -4 -4 -10z" />
    <path d="M1933 793 c4 -3 10 -3 14 0 3 4 0 7 -7 7 -7 0 -10 -3 -7 -7z" />
    <path d="M1940 740 c0 -5 5 -10 11 -10 5 0 7 5 4 10 -3 6 -8 10 -11 10 -2 0
-4 -4 -4 -10z" />
    <path d="M1503 693 c4 -3 10 -3 14 0 3 4 0 7 -7 7 -7 0 -10 -3 -7 -7z" />
    <path d="M1545 660 c3 -5 8 -10 11 -10 3 0 2 5 -1 10 -3 6 -8 10 -11 10 -3 0
-2 -4 1 -10z" />
    <path d="M1940 629 c0 -5 5 -7 10 -4 6 3 10 8 10 11 0 2 -4 4 -10 4 -5 0 -10
-5 -10 -11z" />
    <path d="M1655 550 c3 -5 8 -10 11 -10 3 0 2 5 -1 10 -3 6 -8 10 -11 10 -3 0
-2 -4 1 -10z" />
    <path d="M1725 480 c3 -5 8 -10 11 -10 3 0 2 5 -1 10 -3 6 -8 10 -11 10 -3 0
-2 -4 1 -10z" />
    <path d="M1300 450 c0 -7 3 -10 7 -7 3 4 3 10 0 14 -4 3 -7 0 -7 -7z" />
    <path d="M1765 440 c3 -5 8 -10 11 -10 3 0 2 5 -1 10 -3 6 -8 10 -11 10 -3 0
-2 -4 1 -10z" />
    <path d="M1860 429 c0 -5 5 -7 10 -4 6 3 10 8 10 11 0 2 -4 4 -10 4 -5 0 -10
-5 -10 -11z" />
    <path d="M1284 418 l-7 -11 11 7 c7 4 12 9 12 12 0 8 -9 4 -16 -8z" />
    <path d="M1823 383 c4 -3 10 -3 14 0 3 4 0 7 -7 7 -7 0 -10 -3 -7 -7z" />
    <path d="M1200 310 c0 -7 3 -10 7 -7 3 4 3 10 0 14 -4 3 -7 0 -7 -7z" />
    <path d="M1715 290 l-6 -10 15 6 c18 7 21 14 7 14 -6 0 -13 -4 -16 -10z" />
    <path d="M1345 230 c3 -5 11 -10 16 -10 6 0 7 5 4 10 -3 6 -11 10 -16 10 -6 0
-7 -4 -4 -10z" />
    <path d="M1380 226 c0 -2 7 -6 15 -10 8 -3 15 -1 15 4 0 6 -7 10 -15 10 -8 0
-15 -2 -15 -4z" />
  </g>
  <g transform="translate(0.000000,225.000000) scale(0.100000,-0.100000)" fill="#dee2e5" stroke="none">
    <path d="M693 2023 c4 -3 10 -3 14 0 3 4 0 7 -7 7 -7 0 -10 -3 -7 -7z" />
    <path d="M913 2023 c4 -3 10 -3 14 0 3 4 0 7 -7 7 -7 0 -10 -3 -7 -7z" />
    <path d="M644 2008 l-7 -11 11 7 c12 7 16 16 8 16 -3 0 -8 -5 -12 -12z" />
    <path d="M544 1958 l-7 -11 11 7 c12 7 16 16 8 16 -3 0 -8 -5 -12 -12z" />
    <path d="M1066 1955 c10 -8 23 -15 28 -15 6 0 1 7 -10 15 -10 8 -23 15 -28 15
-6 0 -1 -7 10 -15z" />
    <path d="M623 1853 c4 -3 10 -3 14 0 3 4 0 7 -7 7 -7 0 -10 -3 -7 -7z" />
    <path d="M665 1850 c3 -5 8 -10 11 -10 2 0 4 5 4 10 0 6 -5 10 -11 10 -5 0 -7
-4 -4 -10z" />
    <path d="M1190 1850 c0 -7 3 -10 7 -7 3 4 3 10 0 14 -4 3 -7 0 -7 -7z" />
    <path d="M412 1830 c-18 -29 -15 -38 4 -12 9 13 14 25 12 27 -2 2 -9 -5 -16
-15z" />
    <path d="M1226 1797 c3 -10 9 -15 12 -12 3 3 0 11 -7 18 l-12 12 7 -18z" />
    <path d="M540 1780 c0 -7 3 -10 7 -7 3 4 3 10 0 14 -4 3 -7 0 -7 -7z" />
    <path d="M633 1783 c4 -3 10 -3 14 0 3 4 0 7 -7 7 -7 0 -10 -3 -7 -7z" />
    <path d="M1246 1757 c3 -10 9 -15 12 -12 3 3 0 11 -7 18 l-12 12 7 -18z" />
    <path d="M344 1708 l-7 -11 11 7 c12 7 16 16 8 16 -3 0 -8 -5 -12 -12z" />
    <path d="M1265 1710 c3 -5 8 -10 11 -10 3 0 2 5 -1 10 -3 6 -8 10 -11 10 -3 0
-2 -4 1 -10z" />
    <path d="M551 1683 l-11 -28 15 19 c8 11 15 23 15 28 0 15 -7 8 -19 -19z" />
    <path d="M1275 1670 c3 -5 8 -10 11 -10 3 0 2 5 -1 10 -3 6 -8 10 -11 10 -3 0
-2 -4 1 -10z" />
    <path d="M1290 1590 c0 -7 3 -10 7 -7 3 4 3 10 0 14 -4 3 -7 0 -7 -7z" />
    <path d="M520 1550 c0 -7 3 -10 7 -7 3 4 3 10 0 14 -4 3 -7 0 -7 -7z" />
    <path d="M1570 1146 c0 -2 7 -7 16 -10 l15 -6 -6 10 c-6 10 -25 14 -25 6z" />
    <path d="M1625 1130 c3 -5 8 -10 11 -10 3 0 2 5 -1 10 -3 6 -8 10 -11 10 -3 0
-2 -4 1 -10z" />
    <path d="M1675 1110 c3 -5 8 -10 11 -10 3 0 2 5 -1 10 -3 6 -8 10 -11 10 -3 0
-2 -4 1 -10z" />
    <path d="M1845 970 c3 -5 8 -10 11 -10 3 0 2 5 -1 10 -3 6 -8 10 -11 10 -3 0
-2 -4 1 -10z" />
    <path d="M1865 940 c3 -5 8 -10 11 -10 3 0 2 5 -1 10 -3 6 -8 10 -11 10 -3 0
-2 -4 1 -10z" />
    <path d="M1469 683 l-14 -18 18 14 c16 13 21 21 13 21 -2 0 -10 -8 -17 -17z" />
    <path d="M1344 608 l-7 -11 11 7 c7 4 12 9 12 12 0 8 -9 4 -16 -8z" />
    <path d="M1334 558 l-7 -11 11 7 c12 7 16 16 8 16 -3 0 -8 -5 -12 -12z" />
    <path d="M1864 428 l-7 -11 11 7 c12 7 16 16 8 16 -3 0 -8 -5 -12 -12z" />
    <path d="M1227 279 c7 -7 15 -10 18 -7 3 3 -2 9 -12 12 l-18 7 12 -12z" />
    <path d="M1683 263 c4 -3 10 -3 14 0 3 4 0 7 -7 7 -7 0 -10 -3 -7 -7z" />
    <path d="M1293 243 c4 -3 10 -3 14 0 3 4 0 7 -7 7 -7 0 -10 -3 -7 -7z" />
    <path d="M1620 240 l-15 -10 12 0 c6 0 15 5 18 10 8 12 4 12 -15 0z" />
    <path d="M1347 229 c7 -7 15 -10 18 -7 3 3 -2 9 -12 12 l-18 7 12 -12z" />
  </g>
  <g transform="translate(0.000000,225.000000) scale(0.100000,-0.100000)" fill="#6b7b8a" stroke="none">
    <path d="M798 2033 c6 -2 18 -2 25 0 6 3 1 5 -13 5 -14 0 -19 -2 -12 -5z" />
    <path d="M903 2023 c4 -3 10 -3 14 0 3 4 0 7 -7 7 -7 0 -10 -3 -7 -7z" />
    <path d="M484 1908 l-7 -11 11 7 c12 7 16 16 8 16 -3 0 -8 -5 -12 -12z" />
    <path d="M1130 1906 c0 -3 9 -10 20 -16 11 -6 20 -8 20 -6 0 3 -9 10 -20 16
-11 6 -20 8 -20 6z" />
    <path d="M454 1878 l-7 -11 11 7 c12 7 16 16 8 16 -3 0 -8 -5 -12 -12z" />
    <path d="M1195 1840 c3 -5 8 -10 11 -10 3 0 2 5 -1 10 -3 6 -8 10 -11 10 -3 0
-2 -4 1 -10z" />
    <path d="M559 1803 l-14 -18 18 14 c9 7 17 15 17 17 0 8 -8 3 -21 -13z" />
    <path d="M644 1788 l-7 -11 11 7 c12 7 16 16 8 16 -3 0 -8 -5 -12 -12z" />
    <path d="M1270 1680 c0 -7 3 -10 7 -7 3 4 3 10 0 14 -4 3 -7 0 -7 -7z" />
    <path d="M331 1644 l1 -19 5 13 c3 7 2 16 -1 19 -3 4 -6 -2 -5 -13z" />
    <path d="M530 1610 c0 -7 3 -10 7 -7 3 4 3 10 0 14 -4 3 -7 0 -7 -7z" />
    <path d="M460 1570 c0 -7 3 -10 7 -7 3 4 3 10 0 14 -4 3 -7 0 -7 -7z" />
    <path d="M514 1538 l-7 -11 11 7 c12 7 16 16 8 16 -3 0 -8 -5 -12 -12z" />
    <path d="M1563 1143 c4 -3 10 -3 14 0 3 4 0 7 -7 7 -7 0 -10 -3 -7 -7z" />
    <path d="M1760 1056 c0 -2 8 -10 18 -17 l17 -14 -14 18 c-13 16 -21 21 -21 13z" />
    <path d="M1920 840 c0 -7 3 -10 7 -7 3 4 3 10 0 14 -4 3 -7 0 -7 -7z" />
    <path d="M1389 763 l-14 -18 15 11 c8 6 22 14 30 17 l15 5 -16 1 c-9 1 -23 -7
-30 -16z" />
    <path d="M1351 644 l1 -19 5 13 c3 7 2 16 -1 19 -3 4 -6 -2 -5 -13z" />
    <path d="M1341 574 l1 -19 5 13 c3 7 2 16 -1 19 -3 4 -6 -2 -5 -13z" />
    <path d="M1920 530 c0 -7 3 -10 7 -7 3 4 3 10 0 14 -4 3 -7 0 -7 -7z" />
    <path d="M1834 388 l-7 -11 11 7 c12 7 16 16 8 16 -3 0 -8 -5 -12 -12z" />
    <path d="M1214 328 l-7 -11 11 7 c7 4 12 9 12 12 0 8 -9 4 -16 -8z" />
    <path d="M1764 318 l-7 -11 11 7 c12 7 16 16 8 16 -3 0 -8 -5 -12 -12z" />
    <path d="M1463 213 c9 -2 23 -2 30 0 6 3 -1 5 -18 5 l-30 0 18 -5z" />
  </g>
  <g transform="translate(0.000000,225.000000) scale(0.100000,-0.100000)" fill="#a0a9b3" stroke="none">
    <path d="M703 2023 c4 -3 10 -3 14 0 3 4 0 7 -7 7 -7 0 -10 -3 -7 -7z" />
    <path d="M1025 1980 c3 -5 8 -10 11 -10 3 0 2 5 -1 10 -3 6 -8 10 -11 10 -3 0
-2 -4 1 -10z" />
    <path d="M573 1973 c4 -3 10 -3 14 0 3 4 0 7 -7 7 -7 0 -10 -3 -7 -7z" />
    <path d="M1075 1950 c3 -5 8 -10 11 -10 3 0 2 5 -1 10 -3 6 -8 10 -11 10 -3 0
-2 -4 1 -10z" />
    <path d="M1115 1920 c3 -5 8 -10 11 -10 3 0 2 5 -1 10 -3 6 -8 10 -11 10 -3 0
-2 -4 1 -10z" />
    <path d="M414 1828 l-7 -11 11 7 c12 7 16 16 8 16 -3 0 -8 -5 -12 -12z" />
    <path d="M604 1758 l-7 -11 11 7 c12 7 16 16 8 16 -3 0 -8 -5 -12 -12z" />
    <path d="M1260 1720 c0 -7 3 -10 7 -7 3 4 3 10 0 14 -4 3 -7 0 -7 -7z" />
    <path d="M470 1640 c0 -7 3 -10 7 -7 3 4 3 10 0 14 -4 3 -7 0 -7 -7z" />
    <path d="M1433 1153 c4 -3 10 -3 14 0 3 4 0 7 -7 7 -7 0 -10 -3 -7 -7z" />
    <path d="M1835 980 c3 -5 8 -10 11 -10 3 0 2 5 -1 10 -3 6 -8 10 -11 10 -3 0
-2 -4 1 -10z" />
    <path d="M1880 911 c0 -6 4 -13 10 -16 l10 -6 -6 15 c-7 18 -14 21 -14 7z" />
    <path d="M1394 768 l-7 -11 11 7 c12 7 16 16 8 16 -3 0 -8 -5 -12 -12z" />
    <path d="M1441 744 l1 -19 5 13 c3 7 2 16 -1 19 -3 4 -6 -2 -5 -13z" />
    <path d="M1488 693 c7 -3 16 -2 19 1 4 3 -2 6 -13 5 l-19 -1 13 -5z" />
    <path d="M1900 500 c0 -5 5 -10 10 -10 6 0 10 5 10 10 0 6 -4 10 -10 10 -5 0
-10 -4 -10 -10z" />
    <path d="M1880 460 c0 -7 3 -10 7 -7 3 4 3 10 0 14 -4 3 -7 0 -7 -7z" />
    <path d="M1603 233 c4 -3 10 -3 14 0 3 4 0 7 -7 7 -7 0 -10 -3 -7 -7z" />
    <path d="M1363 223 c4 -3 10 -3 14 0 3 4 0 7 -7 7 -7 0 -10 -3 -7 -7z" />
    <path d="M1433 213 c4 -3 10 -3 14 0 3 4 0 7 -7 7 -7 0 -10 -3 -7 -7z" />
  </g>
  <g transform="translate(0.000000,225.000000) scale(0.100000,-0.100000)" fill="#2c475f" stroke="none">
    <path d="M544 1788 l-7 -11 11 7 c12 7 16 16 8 16 -3 0 -8 -5 -12 -12z" />
    <path d="M1383 1143 c4 -3 10 -3 14 0 3 4 0 7 -7 7 -7 0 -10 -3 -7 -7z" />
    <path d="M1593 1133 c4 -3 10 -3 14 0 3 4 0 7 -7 7 -7 0 -10 -3 -7 -7z" />
    <path d="M1735 1070 c3 -5 8 -10 11 -10 3 0 2 5 -1 10 -3 6 -8 10 -11 10 -3 0
-2 -4 1 -10z" />
    <path d="M1903 863 c4 -3 10 -3 14 0 3 4 0 7 -7 7 -7 0 -10 -3 -7 -7z" />
    <path d="M1903 503 c4 -3 10 -3 14 0 3 4 0 7 -7 7 -7 0 -10 -3 -7 -7z" />
    <path d="M1854 418 l-7 -11 11 7 c12 7 16 16 8 16 -3 0 -8 -5 -12 -12z" />
    <path d="M1303 243 c4 -3 10 -3 14 0 3 4 0 7 -7 7 -7 0 -10 -3 -7 -7z" />
    <path d="M1333 233 c4 -3 10 -3 14 0 3 4 0 7 -7 7 -7 0 -10 -3 -7 -7z" />
    <path d="M1373 223 c4 -3 10 -3 14 0 3 4 0 7 -7 7 -7 0 -10 -3 -7 -7z" />
  </g>
  <g transform="translate(0.000000,225.000000) scale(0.100000,-0.100000)" fill="#56697b" stroke="none">
    <path d="M469 1893 l-14 -18 18 14 c9 7 17 15 17 17 0 8 -8 3 -21 -13z" />
    <path d="M460 1580 c0 -7 3 -10 7 -7 3 4 3 10 0 14 -4 3 -7 0 -7 -7z" />
    <path d="M1373 1143 c4 -3 10 -3 14 0 3 4 0 7 -7 7 -7 0 -10 -3 -7 -7z" />
    <path d="M1825 990 c3 -5 8 -10 11 -10 3 0 2 5 -1 10 -3 6 -8 10 -11 10 -3 0
-2 -4 1 -10z" />
    <path d="M1940 600 c0 -7 3 -10 7 -7 3 4 3 10 0 14 -4 3 -7 0 -7 -7z" />
  </g>
  <g transform="translate(0.000000,225.000000) scale(0.100000,-0.100000)" fill="#7d8a98" stroke="none">
    <path d="M783 2033 c4 -3 10 -3 14 0 3 4 0 7 -7 7 -7 0 -10 -3 -7 -7z" />
    <path d="M823 2033 c4 -3 10 -3 14 0 3 4 0 7 -7 7 -7 0 -10 -3 -7 -7z" />
    <path d="M1125 1910 c3 -5 8 -10 11 -10 3 0 2 5 -1 10 -3 6 -8 10 -11 10 -3 0
-2 -4 1 -10z" />
    <path d="M1350 660 c0 -7 3 -10 7 -7 3 4 3 10 0 14 -4 3 -7 0 -7 -7z" />
    <path d="M1204 318 l-7 -11 11 7 c7 4 12 9 12 12 0 8 -9 4 -16 -8z" />
    <path d="M1443 213 c4 -3 10 -3 14 0 3 4 0 7 -7 7 -7 0 -10 -3 -7 -7z" />
  </g>
  <g transform="translate(0.000000,225.000000) scale(0.100000,-0.100000)" fill="#53bbe6" stroke="none">
    <path d="M1084 1020 c0 -58 1 -81 3 -52 2 28 2 76 0 105 -2 28 -3 5 -3 -53z" />
    <path d="M1025 900 c3 -5 8 -10 11 -10 3 0 2 5 -1 10 -3 6 -8 10 -11 10 -3 0
-2 -4 1 -10z" />
    <path d="M1053 893 c4 -3 10 -3 14 0 3 4 0 7 -7 7 -7 0 -10 -3 -7 -7z" />
    <path d="M1260 530 c0 -7 3 -10 7 -7 3 4 3 10 0 14 -4 3 -7 0 -7 -7z" />
    <path d="M415 420 c3 -5 8 -10 11 -10 3 0 2 5 -1 10 -3 6 -8 10 -11 10 -3 0
-2 -4 1 -10z" />
    <path d="M470 356 c0 -2 8 -10 18 -17 l17 -14 -14 18 c-13 16 -21 21 -21 13z" />
    <path d="M1074 298 l-7 -11 11 7 c7 4 12 9 12 12 0 8 -9 4 -16 -8z" />
  </g>
  <g transform="translate(0.000000,225.000000) scale(0.100000,-0.100000)" fill="#68c5e9" stroke="none">
    <path d="M331 604 l1 -19 5 13 c3 7 2 16 -1 19 -3 4 -6 -2 -5 -13z" />
    <path d="M1270 570 c0 -7 3 -10 7 -7 3 4 3 10 0 14 -4 3 -7 0 -7 -7z" />
    <path d="M450 376 c0 -2 8 -10 18 -17 l17 -14 -14 18 c-13 16 -21 21 -21 13z" />
    <path d="M1144 354 l-19 -15 23 11 c12 6 22 13 22 15 0 8 -5 6 -26 -11z" />
    <path d="M703 223 c4 -3 10 -3 14 0 3 4 0 7 -7 7 -7 0 -10 -3 -7 -7z" />
    <path d="M903 223 c4 -3 10 -3 14 0 3 4 0 7 -7 7 -7 0 -10 -3 -7 -7z" />
    <path d="M798 213 c6 -2 18 -2 25 0 6 3 1 5 -13 5 -14 0 -19 -2 -12 -5z" />
  </g>
  <g transform="translate(0.000000,225.000000) scale(0.100000,-0.100000)" fill="#3ab6e4" stroke="none">
    <path d="M1033 893 c4 -3 10 -3 14 0 3 4 0 7 -7 7 -7 0 -10 -3 -7 -7z" />
    <path d="M1080 730 c0 -7 3 -10 7 -7 3 4 3 10 0 14 -4 3 -7 0 -7 -7z" />
    <path d="M1043 693 c4 -3 10 -3 14 0 3 4 0 7 -7 7 -7 0 -10 -3 -7 -7z" />
    <path d="M383 463 c4 -3 10 -3 14 0 3 4 0 7 -7 7 -7 0 -10 -3 -7 -7z" />
    <path d="M565 280 c3 -5 8 -10 11 -10 3 0 2 5 -1 10 -3 6 -8 10 -11 10 -3 0
-2 -4 1 -10z" />
    <path d="M1024 268 l-7 -11 11 7 c7 4 12 9 12 12 0 8 -9 4 -16 -8z" />
  </g>
  <g transform="translate(0.000000,225.000000) scale(0.100000,-0.100000)" fill="#9dd7f0" stroke="none">
    <path d="M1043 893 c4 -3 10 -3 14 0 3 4 0 7 -7 7 -7 0 -10 -3 -7 -7z" />
  </g>
</svg>